<?xml version="1.0" encoding="utf-8"?>
<!-- Generator: Adobe Illustrator 19.0.0, SVG Export Plug-In . SVG Version: 6.00 Build 0)  -->
<svg version="1.1" id="Слой_1" xmlns="http://www.w3.org/2000/svg" xmlns:xlink="http://www.w3.org/1999/xlink" x="0px" y="0px"
	 viewBox="-651.3740234 -62.6390533 535.7480469 408.1889648"
	 style="enable-background:new -651.3740234 -62.6390533 535.7480469 408.1889648;" xml:space="preserve">
<style type="text/css">
	.st0{fill:#0070D4;}
	.st1{fill:#FFBD1B;}
</style>
<g id="Layer_11">
	<circle class="st0" cx="-339.2086792" cy="88.3058319" r="17.7165318"/>
	<circle class="st0" cx="-348.0669556" cy="97.1641006" r="8.8582706"/>
	<circle class="st0" cx="-312.6338806" cy="97.1641006" r="8.8582706"/>
	<circle class="st0" cx="-321.492157" cy="88.3058319" r="17.7165318"/>
	<path class="st0" d="M-472.0827332,247.7546539c-4.8922729,0.0097809-8.8661804-3.9482422-8.875946-8.8405457
		c-0.0027466-1.3570862,0.3063965-2.6966553,0.9035339-3.9153442l7.9724121-15.7677002
		c7.4416199-15.1123657,22.8399353-24.667572,39.6850586-24.6260071h43.5826721l15.2362366-30.4724579
		c2.5223083-4.191925,7.9653015-5.5453796,12.1572571-3.023056c3.7622681,2.2638245,5.2984009,6.9420471,3.6104431,10.9954834
		l-20.1968384,40.2165527h-54.3897705c-10.0704041-0.0279999-19.2794189,5.6760712-23.7401428,14.7047119l-7.9724426,15.7677155
		C-465.600708,245.8358612-468.695343,247.7614441-472.0827332,247.7546539z"/>
	<path class="st0" d="M-365.7835083,247.7546539c-3.3873291,0.0067902-6.4820251-1.9187927-7.9724121-4.9606476
		l-17.7165527-35.4330597c-1.8807068-4.5163574,0.2558899-9.7021942,4.7722473-11.5829163
		c4.0534363-1.6879425,8.7316589-0.1517792,10.9954834,3.6104584l17.7165222,35.4331055
		c2.1526184,4.3932343,0.3362122,9.6997375-4.0570374,11.8523407c-1.218689,0.5971375-2.5582886,0.90625-3.9154053,0.9035492
		L-365.7835083,247.7546539z"/>
	<path class="st1" d="M-238.047287,283.1877136h-290.9055176l35.4331055-35.4330597
		c11.711853-11.3957825,27.4188232-17.7548981,43.7598267-17.7165375h133.228363
		c16.3410339-0.0383606,32.0480042,6.320755,43.7598267,17.7165375L-238.047287,283.1877136z M-486.0787964,265.4711914h205.1575317
		l-5.1378174-4.7834778c-8.2129211-8.1405945-19.2640381-12.7769775-30.8267822-12.9330597h-133.228363
		c-11.5627136,0.1560822-22.6138306,4.7924652-30.8267517,12.9330597L-486.0787964,265.4711914z"/>
	<path class="st1" d="M-360.2913513,247.7546539h-56.5157471l25.6889648-16.2992249
		c0,0,32.2440796-22.3228302,45.7086487-88.5826721c3.9450073-20.8561554,6.0201416-42.0228195,6.2008057-63.248024h17.7165222
		c0.1844788,22.591629-1.8927917,45.1449966-6.2008057,67.3228531
		c-5.8469238,33.1181335-15.9709778,65.3365021-30.118103,95.8464508L-360.2913513,247.7546539z"/>
	<path class="st1" d="M-330.3504333,88.3058319c-6.9582825,0.9216003-13.8309631,2.402771-20.5511475,4.4291306
		c-7.163147,1.9696274-14.1546326,4.5173645-20.9055176,7.6181183
		c-14.4038391,5.4141464-25.3398743,17.404213-29.4094543,32.2440872
		c-1.4619141-8.5173264,0.2392578-17.275322,4.7834778-24.6259918c4.5488586-7.5118561,10.5762329-14.0214081,17.7165222-19.1338577
		c6.6623535-5.2047958,13.9911499-9.4948196,21.7913208-12.7558899c8.4109497-3.5603714,17.4415894-5.4267197,26.5747986-5.4921341
		V88.3058319z"/>
	<path class="st1" d="M-330.3504333,70.5892944c9.1332397,0.0654144,18.1638794,1.9317627,26.5747986,5.4921341
		c7.8948975,3.0670395,15.3431396,7.1784515,22.1456909,12.2244034c7.1402588,5.112442,13.1676331,11.621994,17.7165222,19.1338501
		c4.5441895,7.3506775,6.2454224,16.1086655,4.7834778,24.6259918
		c-4.0696106-14.8398743-15.0055847-26.8299408-29.4094238-32.2440872
		c-6.750946-3.1007538-13.7424316-5.6484833-20.9055481-7.6181183c-6.8509216-1.8654633-13.8426208-3.1690063-20.9055176-3.8976364
		V70.5892944z"/>
	<path class="st1" d="M-336.5512085,85.6483612c-17.1591187-14.2336197-40.6656799-18.0949249-61.4763794-10.0984192
		c-10.6927185,4.5373764-19.7688293,12.193428-26.0433044,21.9684982
		c-6.5170288,10.8525238-10.7940674,22.9005661-12.5787354,35.4330673
		c-2.0366516-13.2427673-0.6333923-26.7867432,4.0747681-39.330719
		c5.1749878-13.4402161,14.8059998-24.6972046,27.2834778-31.8897629
		c12.7805481-7.6330185,27.754303-10.7525635,42.5196838-8.8582687
		c14.9234924,1.8680267,28.6544495,9.1114235,38.6220703,20.3740082L-336.5512085,85.6483612z"/>
	<path class="st1" d="M-336.5512085,73.2467651c9.9676208-11.2625847,23.6985779-18.5059814,38.6220398-20.3740082
		c14.7453918-1.9473763,29.7177734,1.1094856,42.5196991,8.6810951
		c12.4774628,7.1925545,22.1084595,18.449543,27.2834778,31.8897743
		c4.7081757,12.5439606,6.1113739,26.0879517,4.0747833,39.3307114c-1.784668-12.5325012-6.0617523-24.5805435-12.5787201-35.433075
		c-6.2744904-9.7750626-15.3506165-17.4311142-26.0432892-21.9684982
		c-20.81073-7.9964905-44.3172913-4.1352005-61.4764099,10.0984192L-336.5512085,73.2467651z"/>
	<path class="st1" d="M-339.2086792,79.4475555c-1.4780273-5.7598953-4.0657349-11.1760559-7.6181335-15.9448776
		c-3.9819031-5.7220001-8.7536316-10.8516121-14.1732178-15.2362251c-5.4520874-4.4626007-11.8901367-7.560154-18.779541-9.0354347
		c-7.4701538-1.194973-15.1170959,0.4481697-21.4370117,4.6063042c4.805481-7.4055099,12.6668396-12.2782574,21.4370117-13.2874012
		c9.0604248-1.0824928,18.2392883,0.5191898,26.397644,4.6063023c8.3042908,4.2686348,15.5636902,10.3181267,21.2598572,17.7165337
		c6.5992126,7.3070717,10.3692932,16.7322922,10.6299133,26.5747986H-339.2086792z"/>
	<path class="st1" d="M-339.2086792,79.4475555c0.2606201-9.8425064,4.0307007-19.2677269,10.6299133-26.5747986
		c5.696167-7.398407,12.9555359-13.4478989,21.2598267-17.7165337c8.121521-4.2088642,17.3022461-5.934103,26.3976135-4.9606361
		c8.7702026,1.0091457,16.6315918,5.881897,21.4370422,13.2874031c-6.3198853-4.1581268-13.9668274-5.8012695-21.4369812-4.6062965
		c-6.8894043,1.4752884-13.3274536,4.572834-18.7795105,9.0354385c-5.4196167,4.384613-10.1913452,9.5142174-14.1732178,15.2362251
		c-3.5523987,4.7688103-6.1401062,10.1849861-7.6181335,15.9448814L-339.2086792,79.4475555z"/>
	<path class="st0" d="M-206.334671,283.1877136h-354.3306885c-4.8922729,0-8.8582764-3.9659729-8.8582764-8.8582458
		c0-4.8923035,3.9660034-8.8582764,8.8582764-8.8582764h354.3306885c4.8922882,0,8.8582764,3.9659729,8.8582764,8.8582764
		C-197.4764099,279.2217407-201.4423981,283.1877136-206.334671,283.1877136z"/>
	<circle class="st1" cx="-498.6575012" cy="52.8727531" r="17.7165337"/>
	<polygon class="st1" points="-516.3740845,88.3058319 -498.6575012,106.0223618 -480.940979,88.3058319 	"/>
	<polygon class="st1" points="-480.940979,17.4396877 -498.6575012,-0.2768486 -516.3740845,17.4396877 	"/>
	<polygon class="st1" points="-463.2244568,70.5892944 -445.5079041,52.872757 -463.2244568,35.1562233 	"/>
	<polygon class="st1" points="-534.0905762,35.1562233 -551.8071289,52.872757 -534.0905762,70.5892944 	"/>
</g>
</svg>
