<?xml version="1.0" encoding="utf-8"?>
<!-- Generator: Adobe Illustrator 19.0.0, SVG Export Plug-In . SVG Version: 6.00 Build 0)  -->
<svg version="1.1" id="Слой_1" xmlns="http://www.w3.org/2000/svg" xmlns:xlink="http://www.w3.org/1999/xlink" x="0px" y="0px"
	 viewBox="-298 380.0606689 64 81.6586914" style="enable-background:new -298 380.0606689 64 81.6586914;" xml:space="preserve">
<style type="text/css">
	.st0{fill:#fff;}
</style>
<title>file_type_django</title>
<path class="st0" d="M-268.9431152,380.0606689h13.4906921v61.8190308
	c-5.7586975,1.1818848-11.6201172,1.791626-17.4987793,1.8203125C-289.4258423,443.6830139-298,436.3235168-298,422.1897583
	c0-13.6098022,9.0947266-22.4561462,23.1910706-22.4561462c1.9769897-0.0385437,3.9501343,0.1903381,5.8658142,0.680481
	C-268.9431152,400.414093-268.9431152,380.0606689-268.9431152,380.0606689z M-268.9431152,411.1658325
	c-1.4666443-0.4837952-3.0050659-0.7139282-4.5490723-0.680481c-6.8049011,0-10.7619324,4.1611938-10.7619324,11.4526062
	c0,7.1009216,3.76651,11.0205383,10.6768799,11.0205383c1.5509338-0.0003662,3.099762-0.1140747,4.6341248-0.3402405v-21.4354248
	V411.1658325z"/>
<path class="st0" d="M-234.0170135,400.6760864v30.9622498c0,10.6598511-0.7995758,15.7839355-3.1404572,20.2037354
	c-2.3890686,4.4939575-6.295578,7.9941711-11.0239258,9.8772888l-12.5141907-5.8964233
	c4.5463257-1.5568237,8.3540649-4.743866,10.687088-8.9450378c1.9257813-3.8141479,2.5348206-8.2339172,2.5348206-19.8600769
	v-26.3417358H-234.0170135z"/>
<rect x="-247.4872894" y="380.1287231" class="st0" width="13.4872961" height="13.7050514"/>
</svg>
