<?xml version="1.0" encoding="utf-8"?>
<!-- Generator: Adobe Illustrator 23.1.0, SVG Export Plug-In . SVG Version: 6.00 Build 0)  -->
<svg version="1.1" id="Слой_1" xmlns="http://www.w3.org/2000/svg" xmlns:xlink="http://www.w3.org/1999/xlink" x="0px" y="0px"
	 viewBox="0 0 141.7 141.7" style="enable-background:new 0 0 141.7 141.7;" xml:space="preserve">
<style type="text/css">
	.st0{fill:#F24B77;}
	.st1{fill:#FFFFFF;}
</style>
<g id="Capa_2">
	<g id="Capa_1-2">
		<circle class="st0" cx="70.9" cy="70.9" r="70.9"/>
		<path class="st1" d="M33.2,81c0.7,0.8,1.7,1.3,2.8,1.3h21.8V97c0,2,1.6,3.6,3.6,3.6h11c1.4,0,2.8-0.9,3.3-2.3l10-23.4h1.3
			c0,2,1.6,3.6,3.6,3.6h14.7c2,0,3.6-1.6,3.6-3.6V38.6c0-2-1.6-3.6-3.6-3.6H90.6c-2,0-3.6,1.6-3.6,3.6v1.9l-13.2-5.3
			c-0.4-0.2-0.9-0.3-1.3-0.3H43.1c-1.8,0-3.3,1.3-3.6,3l-7.2,40.1C32.2,79.1,32.4,80.2,33.2,81z M94.2,42.3h7.4v29.2h-7.3L94.2,42.3
			z M46.2,42.3h25.4l15.3,6.1v19.4h-3.6c-1.4,0-2.8,0.9-3.3,2.3L70,93.4h-4.9V78.8c0-2-1.6-3.6-3.6-3.6l0,0H40.2L46.2,42.3z"/>
	</g>
</g>
</svg>
