<?xml version="1.0" encoding="utf-8"?>
<!-- Generator: Adobe Illustrator 23.1.0, SVG Export Plug-In . SVG Version: 6.00 Build 0)  -->
<svg version="1.1" id="Слой_1" xmlns="http://www.w3.org/2000/svg" xmlns:xlink="http://www.w3.org/1999/xlink" x="0px" y="0px"
	 viewBox="0 0 141.7 141.7" style="enable-background:new 0 0 141.7 141.7;" xml:space="preserve">
<style type="text/css">
	.st0{fill:none;}
	.st1{fill:#FFFFFF;}
</style>
<title>Recurso 363</title>
<g id="Capa_2">
	<g id="Capa_1-2">
		<circle class="st0" cx="70.9" cy="70.9" r="70.9"/>
		<path class="st1" d="M29,82.5c0.8,0.9,1.9,1.5,3.1,1.5h24.2v16.2c0,2.2,1.8,4,4,4h12.2c1.6,0,3.1-1,3.7-2.5l11.1-26h1.4
			c0,2.2,1.8,4,4,4H109c2.2,0,4-1.8,4-4V35.4c0-2.2-1.8-4-4-4H92.8c-2.2,0-4,1.8-4,4v2.1l-14.7-5.9c-0.5-0.2-1-0.3-1.5-0.3H40.1
			c-2,0-3.7,1.4-4,3.3l-8,44.6C27.9,80.4,28.2,81.6,29,82.5z M96.8,39.5h8.2v32.4h-8.1L96.8,39.5z M43.5,39.5h28.2l17,6.8v21.5h-4
			c-1.6,0-3.1,1-3.7,2.5L69.9,96.2h-5.4V80c0-2.2-1.8-4-4-4c0,0,0,0,0,0H36.8L43.5,39.5z"/>
	</g>
</g>
</svg>
