<?xml version="1.0" encoding="utf-8"?>
<!-- Generator: Adobe Illustrator 23.1.0, SVG Export Plug-In . SVG Version: 6.00 Build 0)  -->
<svg version="1.1" id="Слой_1" xmlns="http://www.w3.org/2000/svg" xmlns:xlink="http://www.w3.org/1999/xlink" x="0px" y="0px"
	 viewBox="0 0 141.7 141.7" style="enable-background:new 0 0 141.7 141.7;" xml:space="preserve">
<style type="text/css">
	.st0{fill:none;}
	.st1{fill:#26A69A;}
</style>
<g id="Capa_2">
	<g id="Capa_1-2">
		<circle class="st0" cx="70.9" cy="70.9" r="70.9"/>
		<path class="st1" d="M112,53c-0.8-0.9-1.9-1.5-3.1-1.5H84.7V35.4c0-2.2-1.8-4-4-4H68.5c-1.6,0-3.1,1-3.7,2.5l-11.1,26h-1.4
			c0-2.2-1.8-4-4-4H32c-2.2,0-4,1.8-4,4v40.3c0,2.2,1.8,4,4,4h16.2c2.2,0,4-1.8,4-4V98l14.7,5.9c0.5,0.2,1,0.3,1.5,0.3h32.5
			c2,0,3.7-1.4,4-3.3l8-44.6C113.1,55.1,112.8,53.9,112,53z M44.2,96.1H36V63.7h8.1L44.2,96.1z M97.5,96.1H69.3l-17-6.8V67.8h4
			c1.6,0,3.1-1,3.7-2.5l11.1-25.9h5.4v16.2c0,2.2,1.8,4,4,4l0,0h23.6L97.5,96.1z"/>
	</g>
</g>
</svg>
