<?xml version="1.0" encoding="utf-8"?>
<!-- Generator: Adobe Illustrator 23.1.0, SVG Export Plug-In . SVG Version: 6.00 Build 0)  -->
<svg version="1.1" id="Слой_1" xmlns="http://www.w3.org/2000/svg" xmlns:xlink="http://www.w3.org/1999/xlink" x="0px" y="0px"
	 viewBox="0 0 141.7 141.7" style="enable-background:new 0 0 141.7 141.7;" xml:space="preserve">
<style type="text/css">
	.st0{fill:#26A69A;}
	.st1{fill:#FFFFFF;}
</style>
<g id="Capa_2">
	<g id="Capa_1-2">
		<circle class="st0" cx="70.9" cy="70.9" r="70.9"/>
		<path class="st1" d="M107.8,54.5c-0.7-0.8-1.7-1.3-2.8-1.3H83.3V38.6c0-2-1.6-3.6-3.6-3.6h-11c-1.4,0-2.8,0.9-3.3,2.3l-10,23.4
			h-1.3c0-2-1.6-3.6-3.6-3.6H35.8c-2,0-3.6,1.6-3.6,3.6V97c0,2,1.6,3.6,3.6,3.6h14.6c2,0,3.6-1.6,3.6-3.6v-2l13.2,5.3
			c0.4,0.2,0.9,0.3,1.3,0.3h29.3c1.8,0,3.3-1.3,3.6-3l7.2-40.1C108.8,56.4,108.6,55.3,107.8,54.5z M46.8,93.3h-7.4V64.1h7.3
			L46.8,93.3z M94.8,93.3H69.4l-15.3-6.1V67.8h3.6c1.4,0,2.8-0.9,3.3-2.3l10-23.3h4.9v14.6c0,2,1.6,3.6,3.6,3.6l0,0h21.2L94.8,93.3z
			"/>
	</g>
</g>
</svg>
